<svg width="70" height="70" fill="none" xmlns="http://www.w3.org/2000/svg"><path d="M50.31 2.19h-8.75v-1.1a1.1 1.1 0 00-2.19 0v1.1h-8.74v-1.1a1.1 1.1 0 00-2.2 0v1.1H19.7v-1.1a1.1 1.1 0 00-2.19 0v1.1H8.75c-.6 0-1.1.49-1.1 1.1V68.9c0 .6.5 1.09 1.1 1.09h41.56c.6 0 1.1-.49 1.1-1.1V3.29c0-.6-.5-1.1-1.1-1.1zm-1.1 65.62H9.85V4.37h7.66v3.29a1.1 1.1 0 002.19 0V4.37h8.75v3.29a1.1 1.1 0 002.18 0V4.37h8.75v3.29a1.1 1.1 0 002.2 0V4.37h7.65v63.44z" fill="#333"/><path d="M25.16 12.03H14.22c-.6 0-1.1.5-1.1 1.1v10.93c0 .6.5 1.1 1.1 1.1h10.94c.6 0 1.09-.5 1.09-1.1V13.13c0-.6-.49-1.1-1.1-1.1zm-1.1 10.94h-8.75v-8.75h8.75v8.75zM25.16 27.34H14.22c-.6 0-1.1.5-1.1 1.1v10.93c0 .6.5 1.1 1.1 1.1h10.94c.6 0 1.09-.5 1.09-1.1V28.45c0-.6-.49-1.1-1.1-1.1zm-1.1 10.94h-8.75v-8.75h8.75v8.75zM25.16 42.66H14.22c-.6 0-1.1.49-1.1 1.09v10.94c0 .6.5 1.1 1.1 1.1h10.94c.6 0 1.09-.5 1.09-1.1V43.75c0-.6-.49-1.1-1.1-1.1zm-1.1 10.93h-8.75v-8.75h8.75v8.75zM29.53 14.22c0 .6.5 1.1 1.1 1.1h13.12a1.1 1.1 0 000-2.2H30.62c-.6 0-1.09.5-1.09 1.1zM43.75 21.88H30.62a1.1 1.1 0 000 2.18h13.13a1.1 1.1 0 000-2.18zM30.63 19.69h5.46a1.1 1.1 0 000-2.19h-5.47a1.1 1.1 0 000 2.19zM41.56 19.69a1.1 1.1 0 000-2.19h-2.19a1.1 1.1 0 000 2.19h2.2zM43.75 28.44H30.62a1.1 1.1 0 000 2.18h13.13a1.1 1.1 0 000-2.18zM43.75 37.19H30.62a1.1 1.1 0 000 2.19h13.13a1.1 1.1 0 000-2.2zM30.63 35h5.46a1.1 1.1 0 000-2.19h-5.47a1.1 1.1 0 000 2.19zM41.56 35a1.1 1.1 0 000-2.19h-2.19a1.1 1.1 0 000 2.19h2.2zM43.75 43.75H30.62a1.1 1.1 0 000 2.19h13.13a1.1 1.1 0 000-2.19zM43.75 52.5H30.62a1.1 1.1 0 000 2.19h13.13a1.1 1.1 0 000-2.19zM30.63 50.31h5.46a1.1 1.1 0 000-2.19h-5.47a1.1 1.1 0 000 2.2zM41.56 50.31a1.1 1.1 0 000-2.19h-2.19a1.1 1.1 0 000 2.2h2.2zM58.52 14.22a3.83 3.83 0 00-3.83 3.83V50.3c0 .03 0 .07.02.1a.7.7 0 000 .08l1.1 6.56c.08.53.53.92 1.06.92h3.29c.53 0 .99-.39 1.07-.92l1.1-6.56a.7.7 0 000-.08l.01-.1V18.05a3.83 3.83 0 00-3.82-3.83zm.71 41.56H57.8l-.73-4.37h2.89l-.73 4.37zm.93-6.56h-3.28V22.97h3.28v26.25zm0-28.44h-3.28v-2.73a1.64 1.64 0 013.28 0v2.73z" fill="#333"/></svg>