<svg width="16" height="12" fill="none" xmlns="http://www.w3.org/2000/svg"><path d="M15.19.04H.8a.51.51 0 00-.51.5v1.04c0 .05.05.1.1.12l7.55 4.32.06.02.07-.02L15.4 1.7l.19-.12c.05-.03.1-.06.1-.12V.55a.51.51 0 00-.51-.51zm.45 3.09a.13.13 0 00-.13 0l-4.15 2.44a.13.13 0 00-.06.1.13.13 0 00.03.1l4.15 4.47a.13.13 0 00.18 0 .13.13 0 00.04-.09V3.24a.13.13 0 00-.06-.11zm-5.48 3.26a.13.13 0 00-.15-.02l-1.67.97a.65.65 0 01-.64 0l-1.46-.83a.13.13 0 00-.15.02L.53 11.68a.13.13 0 00.03.2.5.5 0 00.25.08h14.23a.13.13 0 00.13-.15.13.13 0 00-.03-.06l-4.98-5.36zm-5.29-.47a.13.13 0 00-.03-.2L.5 3.22a.13.13 0 00-.19.12v6.52a.13.13 0 00.21.1l4.36-4.04z" fill="#333"/></svg>