<svg width="70" height="70" fill="none" xmlns="http://www.w3.org/2000/svg"><path d="M45.74 40.94L35.9 26.72a1.1 1.1 0 00-1.8 0l-9.84 14.22a1.1 1.1 0 00-.14.97l2.8 8.4h-.67a1.1 1.1 0 00-1.1 1.1v3.28a1.1 1.1 0 001.1 1.1h1.1V67.8a1.1 1.1 0 001.09 1.1h13.12a1.1 1.1 0 001.1-1.1V55.78h1.09a1.1 1.1 0 001.1-1.1v-3.27a1.1 1.1 0 00-1.1-1.1h-.67l2.8-8.4a1.1 1.1 0 00-.14-.97zM35 39.38a1.1 1.1 0 110 2.18 1.1 1.1 0 010-2.19zm5.47 27.34H29.53V55.78h10.94v10.94zm2.19-13.13H27.34V52.5h15.32v1.1zm-1.89-3.28H29.23l-2.86-8.57 7.54-10.9v6.35l.01.18a3.28 3.28 0 102.16 0l.01-.18v-6.34l7.54 10.89-2.86 8.57z" fill="#333"/><path d="M67.81 13.13h-4.37a1.1 1.1 0 00-1.1 1.09v1.1H38.28v-1.1a1.1 1.1 0 00-1.1-1.1H36.1V7.67h1.1a1.1 1.1 0 001.1-1.1V2.2a1.1 1.1 0 00-1.1-1.1h-4.4a1.1 1.1 0 00-1.1 1.1v4.37a1.1 1.1 0 001.1 1.1h1.1v5.46h-1.1a1.1 1.1 0 00-1.1 1.1v1.1H7.67v-1.1a1.1 1.1 0 00-1.1-1.1H2.2a1.1 1.1 0 00-1.1 1.1v4.37a1.1 1.1 0 001.1 1.1h4.37a1.1 1.1 0 001.1-1.1v-1.1h18.08a19.02 19.02 0 00-8.24 15.31h-1.1a1.1 1.1 0 00-1.09 1.1v4.37a1.1 1.1 0 001.1 1.1h4.37a1.1 1.1 0 001.1-1.1v-4.37a1.1 1.1 0 00-1.1-1.1h-1.1c0-8.1 6.25-14.5 12.04-15.24v1.02a1.1 1.1 0 001.1 1.1h4.37a1.1 1.1 0 001.1-1.1v-1.02c2.95.35 5.8 2.12 8.09 5.08a19.2 19.2 0 013.9 10.16h-1.06a1.1 1.1 0 00-1.1 1.1v4.37a1.1 1.1 0 001.1 1.1h4.37a1.1 1.1 0 001.1-1.1v-4.37a1.1 1.1 0 00-1.1-1.1h-1.12c-.24-4.06-1.8-8.2-4.36-11.5a17.28 17.28 0 00-4.02-3.81h18.1l.13-.01v1.1a1.1 1.1 0 001.1 1.1h4.37a1.1 1.1 0 001.1-1.1v-4.37a1.1 1.1 0 00-1.1-1.1zM5.47 17.5H3.28v-2.19h2.19v2.19zm14.22 19.69H17.5V35h2.19v2.19zM33.9 3.29h2.18v2.18H33.9V3.28zm2.18 14.21H33.9v-2.19h2.18v2.19zM50.31 35h2.19v2.19h-2.19V35zm16.4-17.5h-2.18v-2.19h2.19v2.19z" fill="#333"/></svg>