<svg width="70" height="70" fill="none" xmlns="http://www.w3.org/2000/svg"><path d="M50.31 2.19h-8.75v-1.1a1.1 1.1 0 00-2.19 0v1.1h-8.74v-1.1a1.1 1.1 0 00-2.2 0v1.1H19.7v-1.1a1.1 1.1 0 00-2.19 0v1.1H8.75c-.6 0-1.1.49-1.1 1.1V68.9c0 .6.5 1.09 1.1 1.09h41.56c.6 0 1.1-.49 1.1-1.1V3.29c0-.6-.5-1.1-1.1-1.1zm-1.1 65.62H9.85V4.37h7.66v3.29a1.1 1.1 0 002.19 0V4.37h8.75v3.29a1.1 1.1 0 002.18 0V4.37h8.75v3.29a1.1 1.1 0 002.2 0V4.37h7.65v63.44z" fill="#333"/><path d="M25.16 12.03H14.22c-.6 0-1.1.5-1.1 1.1v10.93c0 .6.5 1.1 1.1 1.1h10.94c.6 0 1.09-.5 1.09-1.1V13.13c0-.6-.49-1.1-1.1-1.1zm-1.1 10.94h-8.75v-8.75h8.75v8.75zm1.1 4.37H14.22c-.6 0-1.1.5-1.1 1.1v10.93c0 .6.5 1.1 1.1 1.1h10.94c.6 0 1.09-.5 1.09-1.1V28.45c0-.6-.49-1.1-1.1-1.1zm-1.1 10.94h-8.75v-8.75h8.75v8.75zm1.1 4.38H14.22c-.6 0-1.1.49-1.1 1.09v10.94c0 .6.5 1.1 1.1 1.1h10.94c.6 0 1.09-.5 1.09-1.1V43.75c0-.6-.49-1.1-1.1-1.1zm-1.1 10.93h-8.75v-8.75h8.75v8.75zm5.47-39.37c0 .6.5 1.1 1.1 1.1h13.12a1.1 1.1 0 000-2.2H30.62c-.6 0-1.09.5-1.09 1.1zm14.22 7.66H30.62a1.1 1.1 0 000 2.18h13.13a1.1 1.1 0 000-2.18zm-13.12-2.19h5.46a1.1 1.1 0 000-2.19h-5.47a1.1 1.1 0 000 2.19zm10.93 0a1.1 1.1 0 000-2.19h-2.19a1.1 1.1 0 000 2.19h2.2zm2.19 8.75H30.62a1.1 1.1 0 000 2.18h13.13a1.1 1.1 0 000-2.18zm0 8.75H30.62a1.1 1.1 0 000 2.19h13.13a1.1 1.1 0 000-2.2zM30.63 35h5.46a1.1 1.1 0 000-2.19h-5.47a1.1 1.1 0 000 2.19zm10.93 0a1.1 1.1 0 000-2.19h-2.19a1.1 1.1 0 000 2.19h2.2zm2.19 8.75H30.62a1.1 1.1 0 000 2.19h13.13a1.1 1.1 0 000-2.19zm0 8.75H30.62a1.1 1.1 0 000 2.19h13.13a1.1 1.1 0 000-2.19zm-13.12-2.19h5.46a1.1 1.1 0 000-2.19h-5.47a1.1 1.1 0 000 2.2zm10.93 0a1.1 1.1 0 000-2.19h-2.19a1.1 1.1 0 000 2.2h2.2zm16.96-36.09a3.83 3.83 0 00-3.83 3.83V50.3c0 .03 0 .07.02.1a.7.7 0 000 .08l1.1 6.56c.08.53.53.92 1.06.92h3.29c.53 0 .99-.39 1.07-.92l1.1-6.56a.7.7 0 000-.08l.01-.1V18.05a3.83 3.83 0 00-3.82-3.83zm.71 41.56H57.8l-.73-4.37h2.89l-.73 4.37zm.93-6.56h-3.28V22.97h3.28v26.25zm0-28.44h-3.28v-2.73a1.64 1.64 0 013.28 0v2.73z" fill="#333"/></svg>