<svg width="70" height="70" fill="none" xmlns="http://www.w3.org/2000/svg"><g clip-path="url(#clip0)" fill="#333"><path d="M25.36 43.71a3.77 3.77 0 00-3.25-1.87h-4.95v-2.97a5.43 5.43 0 004.36-4.88 1.03 1.03 0 00-2.05-.16 3.35 3.35 0 11-1.67-3.16 1.03 1.03 0 101.03-1.78 5.38 5.38 0 00-1.67-.63v-2.99a3.42 3.42 0 000-6.52l.01-2.13c0-.34.25-.63.6-.7a8.06 8.06 0 006.36-7.88A8.12 8.12 0 0016.16 0a8.25 8.25 0 00-7.39 5.03 1.03 1.03 0 001.87.84 6.2 6.2 0 015.52-3.82 6 6 0 011.18 11.86 2.76 2.76 0 00-2.22 2.69l-.02 2.15a3.42 3.42 0 000 6.52v3a5.4 5.4 0 000 10.6v2.97h-4.94c-1.34 0-2.59.72-3.26 1.87L.93 54.04a3.77 3.77 0 000 3.76L6.9 68.12A3.77 3.77 0 0010.16 70H22.1c1.34 0 2.58-.72 3.25-1.88l5.98-10.32c.67-1.16.67-2.6 0-3.76L25.36 43.7zm-9.23-23.07a1.37 1.37 0 110 2.74 1.37 1.37 0 010-2.74zm13.43 36.13L23.6 67.1c-.3.52-.87.85-1.48.85H10.16c-.61 0-1.18-.33-1.48-.85L2.7 56.77a1.67 1.67 0 010-1.7l5.97-10.33c.3-.53.87-.85 1.48-.85H22.1c.6 0 1.17.32 1.48.85l5.97 10.32c.3.53.3 1.19 0 1.71z"/><path d="M21.24 49.45a2.4 2.4 0 00-2.07-1.2H13.1a2.4 2.4 0 00-2.07 1.2L7.98 54.7a2.4 2.4 0 000 2.4l.48.82a1.03 1.03 0 001.78-1.02l-.48-.83a.34.34 0 010-.34l3.04-5.27c.06-.1.17-.17.3-.17h6.07c.12 0 .24.07.3.17l3.04 5.27c.06.1.06.23 0 .34l-3.04 5.26a.34.34 0 01-.3.17H13.1c-.25.02-.37-.33-.48-.5a1.03 1.03 0 00-1.78 1.03l.2.33a2.4 2.4 0 002.06 1.2h6.08a2.4 2.4 0 002.07-1.2l3.04-5.27a2.4 2.4 0 000-2.39l-3.04-5.26zm47.83 4.59l-1.74-3.01a1.03 1.03 0 10-1.77 1.03l1.74 3c.3.53.3 1.19 0 1.71L61.32 67.1c-.3.52-.87.85-1.48.85H47.9c-.6 0-1.17-.33-1.48-.85l-5.97-10.33c-.3-.52-.3-1.18 0-1.7l5.97-10.33c.3-.53.87-.85 1.48-.85h11.95c.61 0 1.18.32 1.48.85l1.86 3.22a1.03 1.03 0 101.78-1.03L63.1 43.7a3.77 3.77 0 00-3.26-1.87H54.9v-2.97a5.4 5.4 0 000-10.6v-3a3.42 3.42 0 000-6.52l.02-2.13c0-.34.24-.63.59-.7a8.06 8.06 0 006.31-8.8 1.02 1.02 0 10-2.03.24 6 6 0 01-4.7 6.55 2.76 2.76 0 00-2.22 2.69l-.02 2.15a3.42 3.42 0 000 6.52v3a5.4 5.4 0 000 10.6v2.97H47.9c-1.34 0-2.58.72-3.25 1.87l-5.98 10.33a3.77 3.77 0 000 3.76l5.98 10.32A3.77 3.77 0 0047.89 70h11.95c1.34 0 2.59-.72 3.26-1.88l5.97-10.32c.67-1.16.67-2.6 0-3.76zm-15.2-33.4a1.37 1.37 0 110 2.74 1.37 1.37 0 010-2.74zm-3.35 12.92a3.35 3.35 0 116.7.01 3.35 3.35 0 01-6.7 0zm-3.5-27.17c.5.23 1.12 0 1.36-.52a6.2 6.2 0 015.51-3.82c1.47 0 2.95.62 4.08 1.7a1.03 1.03 0 001.42-1.48A8.03 8.03 0 0053.89 0a8.25 8.25 0 00-7.38 5.03c-.24.52 0 1.13.51 1.36z"/><path d="M56.9 48.25h-6.07a2.4 2.4 0 00-2.07 1.2l-3.04 5.26a2.4 2.4 0 000 2.4l3.04 5.26a2.4 2.4 0 002.07 1.2h6.08a2.4 2.4 0 002.07-1.2l3.04-5.27a2.4 2.4 0 000-2.39l-3.04-5.26a2.4 2.4 0 00-2.07-1.2zm3.34 7.83l-3.04 5.26a.34.34 0 01-.3.17h-6.07a.34.34 0 01-.3-.17l-3.04-5.26a.34.34 0 010-.34l3.04-5.27c.06-.1.18-.17.3-.17h6.08c.12 0 .23.07.3.17l3.03 5.27c.06.1.06.23 0 .34z"/></g><defs><clipPath id="clip0"><path fill="#fff" d="M0 0h70v70H0z"/></clipPath></defs></svg>