<svg width="70" height="70" fill="none" xmlns="http://www.w3.org/2000/svg"><path d="M61.25 39.35c-.6 0-1.1.49-1.1 1.09v7.66h-1.73a6.91 6.91 0 00-13.74 0h-22.8V16.4h38.28v3.44a1.1 1.1 0 002.18 0V15.3c0-.6-.49-1.1-1.09-1.1H20.78c-.6 0-1.1.5-1.1 1.1v1.1H7.17a4.98 4.98 0 00-4.97 4.97v1.59c0 .6.49 1.1 1.1 1.1h1.26l-.83 10.02A4.97 4.97 0 000 38.86v9.24c0 .6.49 1.1 1.1 1.1h2.2a7.1 7.1 0 0014.17 0h2.23c0 .6.49 1.1 1.1 1.1h23.99a6.91 6.91 0 0013.54 0h2.93c.6 0 1.1-.5 1.1-1.1v-8.76c0-.6-.5-1.1-1.1-1.1zM10.39 53.57a4.92 4.92 0 110-9.84 4.92 4.92 0 010 9.84zm9.3-6.56H17.5a1 1 0 00-.19.04A7.1 7.1 0 003.48 47h-1.3v-8.15a2.79 2.79 0 012.8-2.79h14.7V47zm0-13.12H5.93l.82-9.85h12.94v9.85zm0-12.04H4.37v-.49a2.79 2.79 0 012.8-2.79h12.52v3.28zm36.58 27.3a4.73 4.73 0 01-9.37.53.98.98 0 00-.05-1.06 4.72 4.72 0 019.42.53z" fill="#333"/><path d="M60.16 22.95H44.84a1.1 1.1 0 000 2.19h15.32a1.1 1.1 0 100-2.2zm2.18 12.03H38.28a1.1 1.1 0 000 2.19h24.06a1.1 1.1 0 000-2.2zm-2.18-6.56H48.13a1.1 1.1 0 000 2.18h12.03a1.1 1.1 0 100-2.18zm4.37-3.28h2.19a1.1 1.1 0 000-2.2h-2.19a1.1 1.1 0 000 2.2zm3.28 9.84h-2.19a1.1 1.1 0 000 2.19h2.2a1.1 1.1 0 000-2.2zm1.09-6.56h-4.37a1.1 1.1 0 000 2.18h4.38a1.1 1.1 0 100-2.18z" fill="#333"/></svg>