<svg width="40" height="40" fill="none" xmlns="http://www.w3.org/2000/svg"><g clip-path="url(#clip0)"><path d="M37.86 14.17c-.53-1.63-.3-4.08-1.68-5.98-1.38-1.9-3.78-2.45-5.14-3.44-1.35-.99-2.6-3.12-4.86-3.86-2.2-.72-4.44.25-6.18.25-1.74 0-3.99-.97-6.18-.25-2.26.74-3.51 2.87-4.86 3.86-1.35.99-3.76 1.53-5.14 3.44-1.37 1.9-1.15 4.35-1.68 5.98C1.64 15.73 0 17.6 0 20s1.64 4.27 2.14 5.83c.53 1.63.3 4.08 1.68 5.98 1.38 1.9 3.78 2.45 5.14 3.44 1.35.99 2.6 3.12 4.86 3.86 2.2.72 4.44-.25 6.18-.25 1.74 0 4 .97 6.18.25 2.26-.74 3.51-2.87 4.86-3.86 1.35-.99 3.76-1.53 5.14-3.44 1.37-1.9 1.15-4.35 1.68-5.98C38.36 24.27 40 22.4 40 20s-1.64-4.27-2.14-5.83zm-2.98 10.7c-.61 1.9-.45 4.03-1.23 5.1-.79 1.1-2.86 1.6-4.46 2.76-1.58 1.16-2.69 2.99-3.98 3.41-1.22.4-3.2-.4-5.21-.4-2.02 0-3.99.8-5.21.4-1.3-.42-2.4-2.25-3.98-3.4-1.6-1.17-3.68-1.68-4.46-2.76-.78-1.08-.62-3.22-1.23-5.11-.6-1.86-2-3.47-2-4.87s1.4-3 2-4.87c.61-1.9.45-4.03 1.23-5.1.79-1.1 2.86-1.6 4.46-2.76 1.58-1.16 2.68-2.99 3.98-3.41 1.21-.4 3.2.41 5.21.41 2.03 0 3.99-.81 5.21-.41 1.3.42 2.4 2.25 3.98 3.41 1.6 1.16 3.68 1.67 4.46 2.76.78 1.07.62 3.21 1.23 5.1.6 1.86 2 3.47 2 4.87s-1.4 3-2 4.87zm-7.68-9.89c.6.62.6 1.6 0 2.21l-7.82 7.83c-.61.6-1.6.6-2.21 0l-4.37-4.37a1.56 1.56 0 112.21-2.21l3.26 3.26L25 15c.6-.62 1.6-.62 2.2 0z" fill="#3A3A3A"/></g><defs><clipPath id="clip0"><path fill="#fff" d="M0 0h40v40H0z"/></clipPath></defs></svg>