<svg width="40" height="40" fill="none" xmlns="http://www.w3.org/2000/svg"><g clip-path="url(#clip0)"><path d="M36.9 20.73V2.52c0-.65-.53-1.18-1.18-1.18H4.2c-.65 0-1.18.53-1.18 1.18v19.67c-.57.08-1.12.3-1.61.66a3.56 3.56 0 00-.62 5.07l5.3 6.43c3.28 3.84 6.77 4.3 11.95 4.3 4.44 0 6.43.03 10.3-.86l3.78-.9a3.3 3.3 0 002.67 1.4h1.86A3.45 3.45 0 0040 34.78V24.25a3.46 3.46 0 00-3.1-3.52zm-5.29 2.43l-1.57-.8a9.32 9.32 0 00-8.17-.13c-.72.28-2.28 1.22-3.09 1.19h-5.44a3.28 3.28 0 00-3.27 3.27v.86l-.03-.03-3.88-4.22c-.24-.25-.5-.47-.79-.64V11H15v4.31c0 .65.53 1.18 1.18 1.18h7.42c.65 0 1.18-.53 1.18-1.18V11h9.77v9.74a3.4 3.4 0 00-2.94 2.43zM17.36 10.99h5.07v3.13h-5.07V11zm17.19-2.36h-9.77V3.7h9.77v4.93zM22.43 3.7v4.93h-5.07V3.7h5.07zM15 3.7v4.93H5.37V3.7H15zm12.8 31.8c-3.58.82-5.74.8-9.72.8-4.87 0-7.22-.09-10.18-3.45l-5.3-6.43c-.92-1.2.75-2.61 1.83-1.52l3.87 4.2a5.34 5.34 0 003.91 1.72H23a1.18 1.18 0 100-2.36H12.43V26.7c0-.5.4-.92.91-.92h5.44c1.23.09 3-.93 4.08-1.4a6.98 6.98 0 016.12.09l2.46 1.25v8.92l-3.64.87zm9.85-.73c0 .65-.45 1.18-1 1.18H34.8c-.55 0-1-.53-1-1.18V24.25c0-.65.45-1.17 1-1.17h1.86c.55 0 1 .52 1 1.17v10.52z" fill="#3A3A3A"/></g><defs><clipPath id="clip0"><path fill="#fff" d="M0 0h40v40H0z"/></clipPath></defs></svg>