<svg width="40" height="40" fill="none" xmlns="http://www.w3.org/2000/svg"><g clip-path="url(#clip0)"><path d="M36.46 15.98A16.49 16.49 0 0020 0C11.08 0 3.8 7.12 3.54 15.98l-1.19 1.18v8.03l1.18 1.18v5.47c0 3.2 2.6 5.8 5.8 5.8h1.46A3.53 3.53 0 0014.12 40h2.35c1.54 0 2.84-.98 3.33-2.36h.2c5.68 0 10.44-4.04 11.53-9.4h3.07l3.05-3.05v-8.03l-1.19-1.18zM20 2.35c6.98 0 12.8 5.1 13.92 11.77h-2.4A11.78 11.78 0 0020 4.7a11.78 11.78 0 00-11.53 9.4h-2.4A14.14 14.14 0 0120 2.36zm9.11 11.77c-3.8-.01-6.49.22-8.7-3.02l-1.08-1.57-.92 1.66c-1.35 2.43-3.16 2.93-5.47 2.93H10.9a9.43 9.43 0 0118.22 0zM8.24 25.88H6.37l-1.66-1.66v-6.09l1.66-1.66h1.87v9.41zm-2.36 5.96v-3.6h2.59c.44 2.19 1.5 4.2 3.07 5.82-.33.35-.59.77-.75 1.23H9.33a3.45 3.45 0 01-3.45-3.45zm10.6 5.8h-2.36a1.18 1.18 0 010-2.35h2.35a1.18 1.18 0 010 2.36zM29.4 25.89a9.42 9.42 0 01-9.61 9.41 3.53 3.53 0 00-3.33-2.35c-2.42 0-2.38-.01-2.68.02a9.36 9.36 0 01-3.2-7.08v-9.4h2.35c2.08 0 4.62-.35 6.58-2.74 2.6 2.71 5.76 2.73 8.6 2.73h1.3v9.41zm5.88-1.66l-1.66 1.66h-1.87v-9.4h1.87l1.66 1.65v6.09z" fill="#3A3A3A"/></g><defs><clipPath id="clip0"><path fill="#fff" d="M0 0h40v40H0z"/></clipPath></defs></svg>