<svg width="46" height="49" fill="none" xmlns="http://www.w3.org/2000/svg"><path fill="#4CAF50" d="M1.592 24h39.933v2H1.592z"/><path d="M12.49 39.54c-2.567 0-4.535-.756-5.903-2.268-1.368-1.512-2.052-3.54-2.052-6.084V17.976c0-2.664.66-4.752 1.98-6.264 1.344-1.536 3.336-2.304 5.976-2.304s4.62.768 5.94 2.304c1.32 1.512 1.98 3.6 1.98 6.264v13.212c0 2.52-.696 4.548-2.088 6.084-1.368 1.512-3.312 2.268-5.832 2.268zm0-5.364c.745 0 1.225-.312 1.44-.936.24-.624.36-1.356.36-2.196V18.12c0-.96-.107-1.752-.323-2.376-.192-.648-.684-.972-1.476-.972-.792 0-1.296.312-1.512.936-.192.624-.288 1.428-.288 2.412v12.924c0 2.088.6 3.132 1.8 3.132zM29.477 15.78c-.264.144-.96.456-2.088.936-.192.072-.492.192-.9.36-.408.168-.744.324-1.008.468V13.08c2.88-1.488 4.644-2.568 5.292-3.24h4.716V39h-6.012V15.78z" fill="#fff"/><path fill="#4CAF50" d="M.594 24h9.983v2H.594z"/></svg>