<svg width="40" height="40" fill="none" xmlns="http://www.w3.org/2000/svg"><path d="M32.9 2.34c-.85 0-1.65.23-2.34.63v-1.8c0-.65-.53-1.17-1.17-1.17H10.64c-.65 0-1.17.52-1.17 1.17V3A4.7 4.7 0 002.4 7.03c0 1.97.58 3.88 1.69 5.51 1.88 2.78 4.2 3.5 6.12 4.27a10.6 10.6 0 006.14 5.97l-.87 5.5h-.17a3.52 3.52 0 00-3.51 3.52v5.86h-1.17a1.17 1.17 0 000 2.34h18.75a1.17 1.17 0 000-2.34h-1.17V31.8a3.52 3.52 0 00-3.52-3.52h-.17l-.86-5.5a10.6 10.6 0 006.14-5.98c1.81-.73 4.19-1.45 6.1-4.26a9.8 9.8 0 001.68-5.5 4.7 4.7 0 00-4.69-4.7zM9.46 13.98a7.45 7.45 0 01-4.7-6.95 2.35 2.35 0 014.68 0c0 .08 0 .16.03.24v5.62c0 .38.02.75.05 1.12l-.06-.03zm16.41 23.68H14.15V35.3h11.72v2.35zm-1.17-7.03c.65 0 1.17.52 1.17 1.17v1.17H14.15V31.8c0-.65.53-1.18 1.17-1.18h9.38zm-6.83-2.35l.77-4.93a10.6 10.6 0 002.74 0l.78 4.93h-4.3zM28.22 12.9a8.21 8.21 0 01-16.41 0V7.03h16.4v5.86zm0-8.2H11.8V2.34h16.4V4.7zm2.32 9.29l-.04.02c.04-.37.06-.74.06-1.1V7.02a2.35 2.35 0 014.69 0c0 3.08-1.85 5.8-4.7 6.95z" fill="#3A3A3A"/></svg>