<svg width="46" height="49" viewBox="0 0 46 49" fill="none" xmlns="http://www.w3.org/2000/svg">
<rect x="1.59235" y="24" width="39.9334" height="2" fill="#4CAF50"/>
<path d="M12.4906 39.54C9.92264 39.54 7.95464 38.784 6.58664 37.272C5.21864 35.76 4.53464 33.732 4.53464 31.188V17.976C4.53464 15.312 5.19464 13.224 6.51464 11.712C7.85864 10.176 9.85064 9.408 12.4906 9.408C15.1306 9.408 17.1106 10.176 18.4306 11.712C19.7506 13.224 20.4106 15.312 20.4106 17.976V31.188C20.4106 33.708 19.7146 35.736 18.3226 37.272C16.9546 38.784 15.0106 39.54 12.4906 39.54ZM12.4906 34.176C13.2346 34.176 13.7146 33.864 13.9306 33.24C14.1706 32.616 14.2906 31.884 14.2906 31.044V18.12C14.2906 17.16 14.1826 16.368 13.9666 15.744C13.7746 15.096 13.2826 14.772 12.4906 14.772C11.6986 14.772 11.1946 15.084 10.9786 15.708C10.7866 16.332 10.6906 17.136 10.6906 18.12V31.044C10.6906 33.132 11.2906 34.176 12.4906 34.176ZM29.4756 15.78C29.2116 15.924 28.5156 16.236 27.3876 16.716C27.1956 16.788 26.8956 16.908 26.4876 17.076C26.0796 17.244 25.7436 17.4 25.4796 17.544V13.08C28.3596 11.592 30.1236 10.512 30.7716 9.84H35.4876V39H29.4756V15.78Z" fill="white"/>
<rect x="0.593994" y="24" width="9.98336" height="2" fill="#4CAF50"/>
</svg>
